# xmcd
#
# Track frame offsets:
#	150
#	21817
#	40282
#	60930
#	85842
#	104787
#	125965
#	147090
#	168167
#	193007
#	211232
#	235227
#	253902
#	271410
#	290212
#	310965
#
# Disc length: 4386 seconds
#
# Revision: 18
# Processed by: cddbd v1.5.2PL0 Copyright (c) Steve Scherf et al.
# Submitted via: audiograbber 1.83.01
#
DISCID=f4112010
DTITLE=Celine Dion - All The Way... A Decade Of Song
DYEAR=1999
DGENRE=Pop
TTITLE0=The Power Of Love
TTITLE1=Beauty And The Beast
TTITLE2=Because You Loved Me
TTITLE3=It's All Coming Back To Me Now
TTITLE4=Immortality
TTITLE5=To Love You More
TTITLE6=My Heart Will Go On
TTITLE7=Be The Man
TTITLE8=I'm Your Angel
TTITLE9=That's The Way It Is
TTITLE10=If Walls Acould Talk
TTITLE11=The First Time Ever I Saw Your Face
TTITLE12=All The Way
TTITLE13=Then You Look At Me
TTITLE14=I Want You To Need Me
TTITLE15=Live
EXTD=Produced by Vito Luprano and John Doelp
EXTT0=
EXTT1=
EXTT2=Theme from 'Up Close and Personal'
EXTT3=
EXTT4=
EXTT5=
EXTT6=Love theme from 'Titanic'
EXTT7=
EXTT8=
EXTT9=
EXTT10=
EXTT11=
EXTT12=
EXTT13=
EXTT14=
EXTT15=
PLAYORDER=
